<svg id="Layer_1" data-name="Layer 1" xmlns="http://www.w3.org/2000/svg" viewBox="0 0 1000 1000"><defs><style>.cls-1{fill:#020a38;}.cls-2{fill:#e45615;}</style></defs><title>EASY INTERN</title><path class="cls-1" d="M152.33,710.79V614.87h63.08v13.52H167.52v27.55h45.32v13.52H167.52v27.81h47.89v13.52Z"/><path class="cls-1" d="M249,712.33a29.57,29.57,0,0,1-12.42-2.44,19.27,19.27,0,0,1-8.31-6.95,18.85,18.85,0,0,1-3-10.56,19.56,19.56,0,0,1,10.24-17.77,37.7,37.7,0,0,1,13.32-4.38l24.21-4v11.59l-21.38,3.6q-5.79,1-8.49,3.74a9.09,9.09,0,0,0-2.71,6.69,8,8,0,0,0,3,6.5,11.76,11.76,0,0,0,7.79,2.52,20,20,0,0,0,10.23-2.58A18.66,18.66,0,0,0,271,681.82V663.93a10.43,10.43,0,0,0-3.87-8.31q-3.86-3.29-10.17-3.28a17.21,17.21,0,0,0-10,3,17.55,17.55,0,0,0-6.38,7.85l-12.23-6a25.07,25.07,0,0,1,6.37-9.14A30.58,30.58,0,0,1,245,641.78a35.49,35.49,0,0,1,12.55-2.19,33.09,33.09,0,0,1,14.61,3.09,24,24,0,0,1,9.91,8.56,22.85,22.85,0,0,1,3.54,12.69v46.86h-13.9V698.3l2.83.26a26.68,26.68,0,0,1-14.8,12.1A33,33,0,0,1,249,712.33Z"/><path class="cls-1" d="M328.32,712.33a33.28,33.28,0,0,1-18.8-5.27,28,28,0,0,1-11.2-14.17l11.2-5.28a23.61,23.61,0,0,0,7.79,9.4,18.71,18.71,0,0,0,11,3.48,13.93,13.93,0,0,0,8.36-2.32,7.36,7.36,0,0,0,3.22-6.31,5.91,5.91,0,0,0-1.41-4.05,11.32,11.32,0,0,0-3.54-2.64,27.93,27.93,0,0,0-4.32-1.68l-10.94-3.09q-9.15-2.56-13.58-7.72a17.94,17.94,0,0,1-4.44-12.1,19.31,19.31,0,0,1,3.21-11.07,20.87,20.87,0,0,1,8.89-7.34,30.68,30.68,0,0,1,12.87-2.58,31.28,31.28,0,0,1,17,4.7,25.48,25.48,0,0,1,10.55,13.07l-11.33,5.41a17.22,17.22,0,0,0-16.35-11.07,11.85,11.85,0,0,0-7.59,2.25,7.13,7.13,0,0,0-2.84,5.86,6.26,6.26,0,0,0,1.29,4.05,9.26,9.26,0,0,0,3.35,2.58,30.2,30.2,0,0,0,4.25,1.61l11.33,3.34q8.63,2.45,13.26,7.66a18.08,18.08,0,0,1,4.63,12.43,18.53,18.53,0,0,1-3.28,10.88,21.7,21.7,0,0,1-9.08,7.33A32.28,32.28,0,0,1,328.32,712.33Z"/><path class="cls-1" d="M373.38,739.24a28.76,28.76,0,0,1-5.09-.45,20.36,20.36,0,0,1-4.57-1.35V725c1,.26,2.27.49,3.73.71a29.91,29.91,0,0,0,4.25.32q6.06,0,8.95-2.64a23,23,0,0,0,5.21-8.17l4.64-10.56L390.24,717l-30.13-75.83h15.58L398,699.2h-5.28l22.14-58.06h15.71l-30.77,77.24a42.79,42.79,0,0,1-6.12,11,26.3,26.3,0,0,1-8.62,7.28A25,25,0,0,1,373.38,739.24Z"/><path class="cls-1" d="M441.86,710.79V614.87h15.2v95.92Z"/><path class="cls-1" d="M475.47,710.79V641.14h13.9v13.64L487.7,653a19.62,19.62,0,0,1,8.24-10,25,25,0,0,1,13.13-3.41,27.25,27.25,0,0,1,13.64,3.35,24,24,0,0,1,9.27,9.27,27.29,27.29,0,0,1,3.35,13.65v44.93H520.78V669.72a18.71,18.71,0,0,0-1.93-8.82,14.23,14.23,0,0,0-5.41-5.73,15.35,15.35,0,0,0-8-2.06,15.72,15.72,0,0,0-8,2.06,14.07,14.07,0,0,0-5.48,5.73,18.83,18.83,0,0,0-1.93,8.82v41.07Z"/><path class="cls-1" d="M581,711.56q-10.93,0-17-6.18T558,688V654.4H545.63V641.14h1.93a10.26,10.26,0,0,0,7.66-2.83,10.58,10.58,0,0,0,2.77-7.73v-5.41h14.55v16h15.83V654.4H572.54v33a14.39,14.39,0,0,0,1.16,6.11,8.07,8.07,0,0,0,3.73,3.86,14.28,14.28,0,0,0,6.69,1.36c.69,0,1.46-.05,2.32-.13l2.45-.26v12.49c-1.21.17-2.53.34-4,.51A34,34,0,0,1,581,711.56Z"/><path class="cls-1" d="M634.33,712.33a35,35,0,0,1-18.41-4.82,34,34,0,0,1-12.48-13.14,38.26,38.26,0,0,1-4.51-18.6,37.74,37.74,0,0,1,4.51-18.67,34,34,0,0,1,12.29-12.81,33.14,33.14,0,0,1,17.45-4.7,34.9,34.9,0,0,1,14.16,2.71,30.2,30.2,0,0,1,10.43,7.4,33.27,33.27,0,0,1,6.5,10.75,36.67,36.67,0,0,1,2.25,12.87c0,1.12,0,2.28-.13,3.48a19.78,19.78,0,0,1-.51,3.35H610.39V668.56h47.12l-6.83,5.28a19.53,19.53,0,0,0-.9-11.27,17.05,17.05,0,0,0-6.43-7.85,18,18,0,0,0-10.17-2.9,18.45,18.45,0,0,0-10.18,2.9,18.79,18.79,0,0,0-7,8.3,26.59,26.59,0,0,0-1.93,12.88,22.59,22.59,0,0,0,2,12.36,19.92,19.92,0,0,0,7.46,8.24,20.44,20.44,0,0,0,10.88,3,19.52,19.52,0,0,0,10.82-2.83,22.38,22.38,0,0,0,7.08-7.34l11.84,5.92a24.41,24.41,0,0,1-6.37,8.75,32.26,32.26,0,0,1-10.3,6.12A37.24,37.24,0,0,1,634.33,712.33Z"/><path class="cls-1" d="M680.68,710.79V641.14h13.91V655.3l-1.29-2.06q2.31-6.94,7.46-10a24.09,24.09,0,0,1,12.36-3h4.25V653.5h-6a15.63,15.63,0,0,0-11.65,4.5q-4.44,4.51-4.44,12.62v40.17Z"/><path class="cls-1" d="M727.29,710.79V641.14h13.9v13.64l-1.67-1.8a19.62,19.62,0,0,1,8.24-10,25,25,0,0,1,13.13-3.41,27.29,27.29,0,0,1,13.65,3.35,24.14,24.14,0,0,1,9.27,9.27,27.28,27.28,0,0,1,3.34,13.65v44.93H772.6V669.72a18.71,18.71,0,0,0-1.93-8.82,14.21,14.21,0,0,0-5.4-5.73,15.41,15.41,0,0,0-8-2.06,15.72,15.72,0,0,0-8,2.06,14,14,0,0,0-5.47,5.73,18.71,18.71,0,0,0-1.94,8.82v41.07Z"/><path class="cls-2" d="M599.7,431.35s-2-29.78-35.07-49.19c-17.17-10.07-45.87-8.82-45.87-8.82l-1-.23c1.9-1.46,3.61-3.09,5.43-4.58a31.44,31.44,0,0,0,8.87-11.2c3.88-8.35-1.21-16.94-9.43-17.63-7-.58-13.69.92-20.3,2.9-2.63.79-5.12,2.06-8.14,3.17,3.45-3.73,7.6-5.81,11.12-8.71,4.7-3.87,9.12-8,12.08-13.39,3.59-6.51,1.15-14.47-5.07-17.21-2.16-.95-4.52-.47-6.72-1.11h-1.73a2.65,2.65,0,0,1-1.92.38A39.63,39.63,0,0,0,486,308.92l-4.19,1.72c2.88-2.43,6-4.19,8.73-6.45,4.71-3.88,9.12-8,12.09-13.39,3.59-6.52,1.14-14.48-5.07-17.21-2.16-1-4.53-.47-6.72-1.12h-1.73a2.66,2.66,0,0,1-1.93.38,39.88,39.88,0,0,0-15.95,3.2Q443,287.68,414.66,299.22q-45.9,18.76-91.77,37.64c-8.75,3.61-17.55,7.29-25.22,13.12-4.12,3.14-7.32,6.71-8.27,11.95v2.31c.73,2,0,4.33,1.42,6.32a15.05,15.05,0,0,0,7.77,5.68c5.91,1.82,11.92,1.53,17.94.66,2.33-.33,4.7-.41,7-.88a71.85,71.85,0,0,0-11.13,6.84c-4.12,3.13-7.32,6.71-8.26,11.95v2.3c.72,2-.05,4.33,1.42,6.32a14.88,14.88,0,0,0,7.76,5.68c5.92,1.82,11.92,1.53,17.94.67,3.22-.47,6.51-.42,9.66-1.64a46.84,46.84,0,0,1-8,5.23,31.68,31.68,0,0,0-10.82,8.48c-4.55,5.5-5.72,11.88-.94,18.18a20.42,20.42,0,0,0,12.22,7.55,39.18,39.18,0,0,0,16,.07c7.57-1.31,15.1-2.66,22.18-5.78.66-.29,1.3-.8,2.14-.58-2.31,2.36-4.95,4.3-7.22,6.67-16.27,17-23.46,36.7-18.86,60.35,2.18,11.17,7,21,13.63,29.89A90.76,90.76,0,0,0,380.58,557c13.16,9.76,27.94,16.16,43.31,21.25a216.36,216.36,0,0,0,27.22,6.85H451s28.48,8.1,68.28,9.07c40.45,1,61-6.64,61-6.64l-.31,0a2.12,2.12,0,0,0,1.34-2c0-2.18-2.47-1.79-3.91-1.92a130.92,130.92,0,0,1-14-2c-17.23-3.47-34.56-6.44-51.53-11.15a298,298,0,0,1-32.26-10.7,184.71,184.71,0,0,1-34.41-18.06c-14.17-9.62-25.42-21.71-31-38.21a33.59,33.59,0,0,1-.53-20.71c2.28-7.7,7.26-13.53,12.91-18.8,8.7-8.12,18.74-14.49,29.25-19.85,12.76-6.5,44.86-16,66.58-11.32a30,30,0,0,1,20.62,16c2.28,4.71,1.15,11.54.24,16.76-1.67,9.52-8.15,15.69-15.3,20.88-5.88,4.25-12.84,6.91-19.84,9.14A142.94,142.94,0,0,1,478,501.9c-1.44.13-3.08.23-3.58,1.9s.83,2.87,2.05,3.8a83.43,83.43,0,0,0,7.27,4.69c7.69,4.66,15.74,8.54,24.84,9.46a62.52,62.52,0,0,0,9.18.69,78,78,0,0,0,24.38-5.4,105.82,105.82,0,0,0,19.93-9.69,87.71,87.71,0,0,0,19.69-17.61,81.74,81.74,0,0,0,14.57-25.3,77.78,77.78,0,0,0,3.35-16V434.63C599.76,433.65,599.7,431.35,599.7,431.35Z"/></svg>
